<svg
   xmlns:dc="http://purl.org/dc/elements/1.1/"
   xmlns:cc="http://creativecommons.org/ns#"
   xmlns:rdf="http://www.w3.org/1999/02/22-rdf-syntax-ns#"
   xmlns:svg="http://www.w3.org/2000/svg"
   xmlns="http://www.w3.org/2000/svg"
   xmlns:sodipodi="http://sodipodi.sourceforge.net/DTD/sodipodi-0.dtd"
   xmlns:inkscape="http://www.inkscape.org/namespaces/inkscape"
   version="1.1"
   id="YouTube_Icon"
   x="0px"
   y="0px"
   viewBox="0 0 30 30"
   enable-background="new 0 0 1024 721"
   xml:space="preserve"
   sodipodi:docname="youtubeplay.svg"
   width="30"
   height="30"
   inkscape:version="0.92.5 (2060ec1f9f, 2020-04-08)"><metadata
   id="metadata19"><rdf:RDF><cc:Work
       rdf:about=""><dc:format>image/svg+xml</dc:format><dc:type
         rdf:resource="http://purl.org/dc/dcmitype/StillImage" /><dc:title></dc:title></cc:Work></rdf:RDF></metadata><defs
   id="defs17" /><sodipodi:namedview
   pagecolor="#ffffff"
   bordercolor="#666666"
   borderopacity="1"
   objecttolerance="10"
   gridtolerance="10"
   guidetolerance="10"
   inkscape:pageopacity="0"
   inkscape:pageshadow="2"
   inkscape:window-width="1848"
   inkscape:window-height="1016"
   id="namedview15"
   showgrid="false"
   inkscape:zoom="10.474341"
   inkscape:cx="9.7728402"
   inkscape:cy="1.4716165"
   inkscape:window-x="72"
   inkscape:window-y="27"
   inkscape:window-maximized="1"
   inkscape:current-layer="YouTube_Icon" />


<g
   id="g834"
   transform="matrix(0.02479565,0,0,0.02479565,2.4236676,22.920559)"><path
     style="fill:#ffffff"
     inkscape:connector-curvature="0"
     d="M 407,-198 683,-341 407,-485 Z"
     id="Triangle" /><path
     style="opacity:0.12000002;fill:#420000"
     inkscape:connector-curvature="0"
     d="m 407,-485 242,161.6 34,-17.6 z"
     id="The_Sharpness" /><g
     transform="translate(0,-691)"
     id="Lozenge">
	<g
   id="g11">

			<linearGradient
   gradientTransform="matrix(1,0,0,-1,0,721)"
   y2="1.2"
   x2="512.5"
   y1="719.70001"
   x1="512.5"
   gradientUnits="userSpaceOnUse"
   id="SVGID_1_">
			<stop
   id="stop4"
   style="stop-color:#E52D27"
   offset="0" />
			<stop
   id="stop6"
   style="stop-color:#BF171D"
   offset="1" />
		</linearGradient>
		<path
   style="fill:url(#SVGID_1_)"
   inkscape:connector-curvature="0"
   id="path9"
   d="m 1013,156.3 c 0,0 -10,-70.4 -40.6,-101.4 C 933.6,14.2 890,14 870.1,11.6 727.1,1.3 512.7,1.3 512.7,1.3 h -0.4 c 0,0 -214.4,0 -357.4,10.3 C 135,14 91.4,14.2 52.6,54.9 22,85.9 12,156.3 12,156.3 c 0,0 -10.2,82.6 -10.2,165.3 v 77.5 c 0,82.7 10.2,165.3 10.2,165.3 0,0 10,70.4 40.6,101.4 38.9,40.7 89.9,39.4 112.6,43.7 81.7,7.8 347.3,10.3 347.3,10.3 0,0 214.6,-0.3 357.6,-10.7 20,-2.4 63.5,-2.6 102.3,-43.3 30.6,-31 40.6,-101.4 40.6,-101.4 0,0 10.2,-82.7 10.2,-165.3 v -77.5 c 0,-82.7 -10.2,-165.3 -10.2,-165.3 z M 407,493 V 206 l 276,144 z" />
	</g>
</g></g>
</svg>
